<svg t="1713160233207" class="icon" viewBox="0 0 1024 1024" version="1.1" xmlns="http://www.w3.org/2000/svg"
     p-id="34998" width="200" height="200">
    <path d="M274.9 127H927v79H274.9zM927 369.1v79H706.1c-9.7-29.3-25.1-56-44.9-79H927zM927 611.1v79h-25.8c-7.3-29.1-21.4-55.9-40.9-79H927z"
          fill="#FFC228" p-id="34999"></path>
    <path d="M696.3 537.9c0.1-2.6 0.2-5.3 0.2-8 0-118.8-97.8-215.2-218.4-215.2-106.2 0-194.7 74.8-214.3 173.8C166.4 518.4 97 595.6 97 686c0 116.5 115 211 256.9 211 2.9 0 5.7 0 8.6-0.2v0.2h379.4c17.6-7 34.1-16.2 48.8-27.1 47.1-34.8 77.1-87.3 77.1-145.9-0.1-92-73.7-168.6-171.5-186.1zM413.5 753c0 8.5-8.3 15.5-18.6 15.5h-37.1c-10.2 0-18.6-6.9-18.6-15.5v-92.8c0-8.5 8.3-15.5 18.6-15.5h37.1c10.2 0 18.6 6.9 18.6 15.5V753z m98.9-12.4c0 15.4-8.3 27.8-18.6 27.8h-37.1c-10.2 0-18.6-12.5-18.6-27.8v-167c0-15.4 8.3-27.8 18.6-27.8h37.1c10.2 0 18.6 12.5 18.6 27.8v167z m99 6.2c0 12-8.3 21.6-18.6 21.6h-37.1c-10.2 0-18.6-9.7-18.6-21.6V616.9c0-12 8.3-21.6 18.6-21.6h37.1c10.2 0 18.6 9.7 18.6 21.6v129.9z"
          fill="#1218FF" p-id="35000"></path>
</svg>