<svg t="1713159712154" class="icon" viewBox="0 0 1024 1024" version="1.1" xmlns="http://www.w3.org/2000/svg"
     p-id="19827" width="200" height="200">
    <path d="M232.2 645.1v172.7h-84.8V645.1h84.8m43.8-60H103.6c-8.9 0-16.2 7.2-16.2 16.2v260.3c0 8.9 7.2 16.2 16.2 16.2H276c8.9 0 16.2-7.3 16.2-16.2V601.3c0-8.9-7.3-16.2-16.2-16.2zM827.4 645.1v172.7h-84.8V645.1h84.8m43.8-60H698.8c-8.9 0-16.2 7.2-16.2 16.2v260.3c0 8.9 7.2 16.2 16.2 16.2h172.4c8.9 0 16.2-7.3 16.2-16.2V601.3c0-8.9-7.3-16.2-16.2-16.2zM413.7 207.8h144.8V385H413.7z"
          fill="#e0620d" p-id="19828"></path>
    <path d="M528.5 237.8V355h-84.8V237.8h84.8m45.4-60H398.3c-8.1 0-14.6 6.5-14.6 14.6v208c0 8 6.5 14.6 14.6 14.6h175.6c8.1 0 14.6-6.5 14.6-14.6v-208c0-8.1-6.5-14.6-14.6-14.6z"
          fill="#e0620d" p-id="19829"></path>
    <path d="M785.2 610.5c-14 0-25.4-11.4-25.4-25.4v-71.2c0-47.1-38.3-85.4-85.4-85.4h-372c-47.1 0-85.4 38.3-85.4 85.4v71.2c0 14-11.4 25.4-25.4 25.4s-25.4-11.4-25.4-25.4V452.2c0-14 11.4-25.4 25.4-25.4h593.6c14 0 25.4 11.4 25.4 25.4v132.9c0 14-11.4 25.4-25.4 25.4z"
          fill="#e0620d" p-id="19830"></path>
    <path d="M780.6 456.8v12.1c-1.8-4.2-3.8-8.2-6-12.1h6m-578.4 0c-2.2 3.9-4.2 7.9-6 12.1v-12.1h6m583-60H191.6c-30.6 0-55.4 24.8-55.4 55.4v132.9c0 30.6 24.8 55.4 55.4 55.4s55.4-24.8 55.4-55.4v-71.2c0-30.6 24.8-55.4 55.4-55.4h372c30.6 0 55.4 24.8 55.4 55.4v71.2c0 30.6 24.8 55.4 55.4 55.4s55.4-24.8 55.4-55.4V452.2c0-30.6-24.8-55.4-55.4-55.4z"
          fill="#e0620d" p-id="19831"></path>
</svg>