<svg t="1713102985250" class="icon" viewBox="0 0 1024 1024" version="1.1" xmlns="http://www.w3.org/2000/svg" p-id="6487"
     width="200" height="200">
    <path d="M76.8 960l27.456-189.632A458.88 458.88 0 0 1 0 480C0 214.912 229.248 0 512 0s512 214.912 512 480c0 265.088-229.248 480-512 480a537.792 537.792 0 0 1-229.44-50.752L76.8 960z m212.48-118.4l20.544 9.728C371.904 880.576 440.704 896 512 896c248.32 0 448-187.2 448-416S760.32 64 512 64 64 251.2 64 480c0 91.456 31.808 178.368 89.92 250.048l17.664 21.76-17.856 123.264 135.552-33.408z m399.872-373.76c29.44 75.904 55.552 162.304 78.848 260.352l-57.728 14.208c-4.48-18.944-8.32-37.44-12.8-54.784-72.192 12.608-149.952 24.192-233.216 35.84l-10.56-52.736c15.552-4.224 24.448-9.984 27.2-17.92L592 269.696l57.792 7.36-112.192 381.568a3824.64 3824.64 0 0 0 146.56-23.232 2015.488 2015.488 0 0 0-46.592-150.656l51.648-16.896zM268.16 390.912h92.16v-60.096c-25.536 3.2-51.648 5.76-78.272 7.936l-12.224-52.736c80-5.248 151.04-15.232 213.76-30.016l20.032 50.56c-26.688 6.4-55.04 11.648-84.992 16.384v67.968h83.328v53.248H418.688v14.72c26.112 23.168 52.8 49.024 79.424 77.44l-32.192 46.4c-18.368-28.992-33.92-52.672-47.232-70.592v228.672h-58.24v-214.4a550.848 550.848 0 0 1-78.336 117.44L256 580.608c45.504-40.064 78.848-85.888 99.968-136.448H268.16v-53.248z"
          fill="#1296db" p-id="6488"></path>
</svg>