<svg t="1713160612452" class="icon" viewBox="0 0 1024 1024" version="1.1" xmlns="http://www.w3.org/2000/svg"
     p-id="36076" width="256" height="256">
    <path d="M882.149 478.912L781.421 366.75V265.036c0-49.598-40.207-89.805-89.805-89.805-23.478 0-44.667 9.216-60.669 23.966l-46.896-52.218c-37.859-42.158-106.232-42.158-144.092 0L141.863 478.912c-52.419 58.372-9.402 148.252 70.792 149.208v208.177c0 39.955 32.389 72.344 72.344 72.344h137.202V791.394c0-49.598 40.207-89.805 89.805-89.805 49.598 0 89.805 40.207 89.805 89.805V908.64h147.181c39.953 0 72.342-32.389 72.342-72.344V627.42c73.652-7.956 111.005-92.619 60.815-148.508z"
          fill="#FF7B15" p-id="36077"></path>
</svg>