<svg t="1713159895913" class="icon" viewBox="0 0 1024 1024" version="1.1" xmlns="http://www.w3.org/2000/svg"
     p-id="25457" width="200" height="200">
    <path d="M512 0C229.627709 0 0 229.627709 0 512S229.627709 1024 512 1024 1024 794.372291 1024 512 794.372291 0 512 0z m0 996.655196c-267.269721 0-484.655196-217.385475-484.655196-484.655196s217.385475-484.655196 484.655196-484.655196 484.655196 217.385475 484.655196 484.655196-217.385475 484.655196-484.655196 484.655196zM629.273743 566.003128h47.138324c14.530503-0.572067 25.85743-12.013408 26.429497-26.429497 0.228827-7.322458-2.288268-14.416089-7.322458-19.793519-5.03419-5.37743-11.784581-8.581006-19.335866-8.809833h-47.138324c-14.301676 0.457654-25.971844 12.127821-26.54391 26.429498-0.228827 7.322458 2.288268 14.416089 7.322458 19.793519 5.148603 5.37743 12.013408 8.581006 19.450279 8.809832zM486.600223 417.036872c-7.322458 0.228827-14.187263 3.432402-19.221452 8.809832s-7.551285 12.471061-7.322458 19.793519c0.572067 14.873743 12.814302 26.543911 27.344804 26.543911h48.168045c14.530503-0.572067 25.85743-12.013408 26.429497-26.429497 0.34324-7.322458-2.288268-14.416089-7.322458-19.79352-5.03419-5.37743-11.784581-8.581006-19.335866-8.809832h-48.740112z m68.533632 101.141452c-5.37743-5.03419-12.699888-7.436872-19.679106-7.322458h-47.138324c-14.301676 0.457654-25.971844 12.127821-26.543911 26.429497-0.228827 7.322458 2.288268 14.416089 7.322458 19.79352 5.03419 5.37743 11.784581 8.581006 19.335866 8.809832h48.968939c7.322458-0.228827 14.187263-3.432402 19.221452-8.809832s7.551285-12.471061 7.322458-19.79352c-0.228827-7.208045-3.432402-14.072849-8.809832-19.107039z m54.804022-265.439106h-55.147262v50.799553h55.147262v-50.799553z m42.905028 102.05676c15.216983 0 27.573631-12.356648 27.573631-27.573632v-93.818994c0-15.216983-12.471061-27.573631-27.573631-27.573631-15.216983 0-27.573631 12.356648-27.573631 27.573631v93.818994c0 15.216983 12.356648 27.573631 27.573631 27.573632zM629.273743 659.936536h47.023911c15.216983 0 27.573631-12.471061 27.573631-27.573631 0-15.216983-12.356648-27.573631-27.573631-27.573631h-46.909498c-15.10257 0-27.573631 12.356648-27.573631 27.573631-0.114413 15.10257 12.242235 27.573631 27.459218 27.573631z m-19.335866-196.676648c5.03419 5.37743 11.784581 8.581006 19.335866 8.809833h47.138324c14.530503-0.572067 25.85743-12.013408 26.429497-26.429498 0.228827-7.322458-2.288268-14.416089-7.322458-19.793519-5.03419-5.37743-11.784581-8.581006-19.335866-8.809832h-47.138324c-14.530503 0.572067-25.85743 12.013408-26.429497 26.429497-0.228827 7.436872 2.402682 14.416089 7.322458 19.793519zM535.454749 604.789274h-46.909498c-15.10257 0-27.573631 12.356648-27.573631 27.573631s12.356648 27.573631 27.573631 27.573631h46.909498c15.216983 0 27.573631-12.471061 27.573631-27.573631 0-15.216983-12.356648-27.573631-27.573631-27.573631zM371.271508 354.795978c15.216983 0 27.573631-12.356648 27.573632-27.573632v-93.818994c0-15.216983-12.356648-27.573631-27.573632-27.573631s-27.573631 12.356648-27.573631 27.573631v93.818994c-0.114413 15.216983 12.356648 27.573631 27.573631 27.573632z m-25.51419 62.240894c-15.216983 0.572067-27.001564 13.386369-26.429497 28.603351 0.572067 14.873743 12.814302 26.543911 27.344805 26.543911h48.168044c14.530503-0.572067 25.85743-12.013408 26.429498-26.429497 0.228827-7.322458-2.288268-14.416089-7.322459-19.79352-5.03419-5.37743-11.784581-8.581006-19.335865-8.809832h-48.854526z m400.904581-164.297654H695.63352v50.799553h41.188826c5.263017 0 9.610726 4.347709 9.610727 9.610726v404.794637c0 5.263017-4.347709 9.610726-9.610727 9.610726H286.147933c-5.263017 0-9.610726-4.347709-9.610726-9.610726V313.149497c0-5.263017 4.347709-9.610726 9.610726-9.610726H328.36648v-50.799553h-51.028379c-28.145698 0-51.02838 22.882682-51.02838 51.02838v422.299888c0 28.145698 22.882682 51.02838 51.02838 51.02838h469.323798c28.145698 0 51.02838-22.882682 51.02838-51.02838v-422.185475c0-28.145698-22.882682-51.142793-51.02838-51.142793z m-277.452514 0h-55.147262v50.799553h55.147262v-50.799553z m42.790615 102.05676c15.216983 0 27.573631-12.356648 27.573631-27.573632v-93.818994c-0.114413-15.216983-12.471061-27.573631-27.573631-27.573631-15.216983 0-27.573631 12.356648-27.573631 27.573631v93.818994c0 15.216983 12.356648 27.573631 27.573631 27.573632z m-97.70905 163.382346c-5.37743-5.03419-12.699888-7.436872-19.679106-7.322458h-47.138324c-14.301676 0.457654-25.971844 12.127821-26.543911 26.429497-0.228827 7.322458 2.288268 14.416089 7.322458 19.79352 5.03419 5.37743 11.784581 8.581006 19.335866 8.809832h48.968939c15.216983-0.572067 27.001564-13.386369 26.429497-28.603352-0.114413-7.208045-3.203575-14.072849-8.695419-19.107039zM394.726257 604.789274h-47.023911c-15.10257 0-27.573631 12.356648-27.573631 27.573631s12.356648 27.573631 27.573631 27.573631H394.726257c15.216983 0 27.573631-12.471061 27.573631-27.573631 0-15.216983-12.356648-27.573631-27.573631-27.573631z"
          fill="#1A70CC" p-id="25458"></path>
</svg>