<svg t="1713159864250" class="icon" viewBox="0 0 1024 1024" version="1.1" xmlns="http://www.w3.org/2000/svg"
     p-id="24446" width="200" height="200">
    <path d="M192 736c-54.4 0-96-41.6-96-96s41.6-96 96-96 96 41.6 96 96-41.6 96-96 96z m0-64c19.2 0 32-12.8 32-32s-12.8-32-32-32-32 12.8-32 32 12.8 32 32 32zM512 608c-54.4 0-96-41.6-96-96s41.6-96 96-96 96 41.6 96 96-41.6 96-96 96z m0-64c19.2 0 32-12.8 32-32s-12.8-32-32-32-32 12.8-32 32 12.8 32 32 32zM832 480c-54.4 0-96-41.6-96-96s41.6-96 96-96 96 41.6 96 96-41.6 96-96 96z m0-64c19.2 0 32-12.8 32-32s-12.8-32-32-32-32 12.8-32 32 12.8 32 32 32z"
          fill="#50E3C2" p-id="24447"></path>
    <path d="M192 96c19.2 0 32 12.8 32 32v320c0 19.2-12.8 32-32 32s-32-12.8-32-32V128c0-19.2 12.8-32 32-32zM832 544c19.2 0 32 12.8 32 32v320c0 19.2-12.8 32-32 32s-32-12.8-32-32V576c0-19.2 12.8-32 32-32zM512 96c19.2 0 32 12.8 32 32v192c0 19.2-12.8 32-32 32s-32-12.8-32-32V128c0-19.2 12.8-32 32-32zM512 672c19.2 0 32 12.8 32 32v192c0 19.2-12.8 32-32 32s-32-12.8-32-32v-192c0-19.2 12.8-32 32-32zM192 800c19.2 0 32 12.8 32 32v64c0 19.2-12.8 32-32 32s-32-12.8-32-32v-64c0-19.2 12.8-32 32-32zM832 96c19.2 0 32 12.8 32 32v64c0 19.2-12.8 32-32 32s-32-12.8-32-32V128c0-19.2 12.8-32 32-32z"
          fill="#597EF7" p-id="24448"></path>
</svg>