<svg t="1713159769805" class="icon" viewBox="0 0 1024 1024" version="1.1" xmlns="http://www.w3.org/2000/svg"
     p-id="21397" width="200" height="200">
    <path d="M866.346667 89.6H207.573333C167.253333 89.6 134.4 122.453333 134.4 162.773333v146.346667h64V162.773333c0-5.12 4.266667-9.173333 9.173333-9.173333h658.773334c5.12 0 9.173333 4.053333 9.173333 9.173333v699.946667c0 5.12-4.053333 9.173333-9.173333 9.173333H207.573333c-5.12 0-9.173333-4.053333-9.173333-9.173333v-144h-64v144c0 40.32 32.853333 73.173333 73.173333 73.173333h658.773334c40.32 0 73.173333-32.853333 73.173333-73.173333V162.773333c0-40.32-32.853333-73.173333-73.173333-73.173333z"
          p-id="21398" fill="#1296db"></path>
    <path d="M134.4 428.16h64V597.333333h-64zM120.96 400.64h82.346667c17.706667 0 32-14.293333 32-32s-14.293333-32-32-32H120.96c-17.706667 0-32 14.293333-32 32s14.506667 32 32 32zM233.386667 657.493333c0-17.706667-14.293333-32-32-32H119.04c-17.706667 0-32 14.293333-32 32s14.293333 32 32 32h82.346667c17.706667 0 32-14.293333 32-32zM384.213333 655.146667l146.346667 139.306666c6.186667 5.973333 14.08 8.746667 21.973333 8.746667s15.786667-2.986667 21.973334-8.746667l148.053333-139.306666c8.746667-8.106667 12.16-20.48 8.746667-32l-64.853334-228.053334 39.68-122.666666c3.2-9.813333 1.493333-20.48-4.48-28.586667s-15.573333-13.226667-25.813333-13.226667H428.586667a31.872 31.872 0 0 0-30.293334 41.813334l40.96 126.933333-63.786666 224c-3.2 11.306667 0.213333 23.68 8.746666 31.786667z m168.533334 72.32l-110.506667-105.173334 56.96-199.893333h108.373333l56.96 199.893333-111.786666 105.173334z m78.933333-432.64l-19.413333 60.16h-120.32l-19.413334-60.16h159.146667z"
          p-id="21399" fill="#1296db"></path>
</svg>