<svg t="1713009053999" class="icon" viewBox="0 0 1024 1024" version="1.1" xmlns="http://www.w3.org/2000/svg" p-id="8457"
     width="200" height="200">
    <path d="M457 421.5m-374.8 0a374.8 374.8 0 1 0 749.6 0 374.8 374.8 0 1 0-749.6 0Z" fill="#97D6F9"
          p-id="8458"></path>
    <path d="M457 830.4C231.5 830.4 48.2 647 48.2 421.5S231.5 12.7 457 12.7s408.8 183.4 408.8 408.8S682.4 830.4 457 830.4z m0-749.6c-187.9 0-340.7 152.8-340.7 340.7S269.1 762.2 457 762.2s340.7-152.8 340.7-340.7S644.9 80.8 457 80.8z"
          fill="#3CBAFF" p-id="8459"></path>
    <path d="M685.2 693.1c17.7-17.7 46.5-17.6 64.1 0.1l235.6 235.6c17.7 17.7 17.8 46.4 0.1 64.1l-6.6 6.6c-17.7 17.7-46.5 17.6-64.1-0.1L678.6 763.8c-17.7-17.7-17.8-46.4-0.1-64.1l6.7-6.6z"
          fill="#3CBAFF" p-id="8460"></path>
</svg>