<svg t="1713159503539" class="icon" viewBox="0 0 1024 1024" version="1.1" xmlns="http://www.w3.org/2000/svg" p-id="9739"
     width="200" height="200">
    <path d="M510.421333 0.981333c281.386667 0 509.44 228.096 509.44 509.44-0.298667 281.216-228.224 509.141333-509.44 509.44-281.344 0-509.44-228.053333-509.44-509.44C0.981333 229.12 229.077333 0.981333 510.421333 0.981333z m0.938667 619.093334h-220.586667l-5.802666 0.170666c-19.285333 1.450667-27.989333 10.496-28.117334 29.866667-0.170667 27.221333-0.128 54.485333 0 81.749333 0.085333 24.832 8.405333 32.981333 33.621334 32.981334 73.514667 0.085333 147.029333 0 220.586666 0 73.984 0 148.010667 0.085333 221.994667 0 23.893333 0 32.426667-8.533333 32.554667-32.64 0.128-27.733333 0.213333-55.466667-0.042667-83.242667-0.170667-17.749333-8.746667-26.794667-26.368-28.586667-4.309333-0.426667-8.746667-0.256-13.098667-0.256H296.661333z m189.44 35.754666v71.594667h-77.952V655.786667h77.909333z m-189.184-218.026666H291.072l-4.394667 0.085333c-20.565333 1.066667-29.738667 10.581333-29.866666 31.274667-0.085333 25.813333 0 51.626667 0 77.397333 0.042667 28.416 8.106667 36.522667 36.394666 36.522667h439.594667c23.466667-0.085333 32.682667-9.386667 32.810667-32.853334 0.128-28.202667 0-56.448 0-84.693333 0-14.933333-7.68-23.594667-21.930667-26.453333a80.298667 80.298667 0 0 0-15.914667-1.194667c-144.128-0.085333-288.213333-0.042667-432.298666-0.042667z m189.354667 37.248V546.133333H622.933333v-71.082666h78.037334z m-189.738667-219.008l-222.933333 0.085333c-21.888 0-31.232 9.386667-31.402667 31.146667-0.256 25.813333-0.085333 51.626667-0.085333 77.482666 0 28.416 7.68 36.010667 36.608 36.053334h435.626666c28.928 0 36.565333-7.68 36.608-36.053334 0-25.813333 0.170667-51.626667-0.085333-77.482666-0.213333-21.717333-9.6-31.146667-31.445333-31.146667C585.514667 256 436.906667 256 288.256 256.128z m189.312 37.845333v70.229333h-77.226667V293.888h77.226667z"
          fill="#1296db" p-id="9740"></path>
</svg>