<svg t="1712563974389" class="icon" viewBox="0 0 1024 1024" version="1.1" xmlns="http://www.w3.org/2000/svg"
     p-id="11086" width="200" height="200">
    <path d="M511.60722812 512m-471.32700186 0a471.32700047 471.32700047 0 1 0 942.65400233 0 471.32700047 471.32700047 0 1 0-942.65400233 0Z"
          fill="#699cfe" p-id="11087"></path>
    <path d="M771.62262331 477.04324682c-48.31101805-48.31101805-146.89691498-130.0076976-259.62262331-130.00769761s-210.52606011 78.55450031-259.22985005 129.22215384a49.48933509 49.48933509 0 0 0 0 71.4845939c48.70378994 48.70378994 146.50414309 129.22215246 259.22985005 129.22215384s212.09715042-81.69667955 260.40816848-130.00769761a48.70378994 48.70378994 0 0 0-0.78554517-69.91350636zM512 590.55450031a78.55450031 78.55450031 0 1 1 78.55450031-78.55450031 78.55450031 78.55450031 0 0 1-78.55450031 78.55450031z"
          fill="#FFFFFF" p-id="11088"></path>
</svg>